<?xml version="1.0" encoding="utf-8"?>
<!-- Generator: Adobe Illustrator 24.1.1, SVG Export Plug-In . SVG Version: 6.00 Build 0)  -->
<svg version="1.1" id="Layer_1" xmlns="http://www.w3.org/2000/svg" xmlns:xlink="http://www.w3.org/1999/xlink" x="0px" y="0px"
	 viewBox="0 0 674.14 1080" style="enable-background:new 0 0 674.14 1080;" xml:space="preserve">
<g>
	<path d="M651.74,454.4l-101.47,16.08c-6.76,1.08-11.37,7.43-10.31,14.19c0.97,6.1,6.24,10.45,12.23,10.45
		c0.65,0,1.3-0.05,1.96-0.14l101.47-16.08c6.76-1.08,11.37-7.43,10.31-14.19C664.86,457.97,658.65,453.5,651.74,454.4z"/>
	<path d="M512.16,372.4c0,24.82-14.33,46.14-35.02,56.77c-1.59,7.58-2.96,15.23-4.23,22.92c34.09-10.65,59.05-42.13,59.05-79.69
		c0-20.03-7.35-38.19-19.1-52.63c-3.19,7.09-6.23,14.26-9.11,21.52C508.94,350.54,512.16,361.05,512.16,372.4z"/>
	<path d="M519.78,567.93c51.77,0,93.88,42.11,93.88,93.86c0,51.77-42.11,93.88-93.88,93.88c-3.29,0-6.53-0.18-9.73-0.51
		c4.7,10.83,9.8,21.44,15.18,31.89c66.68-2.88,120.09-57.88,120.09-125.26c0-69.22-56.32-125.52-125.54-125.52
		c-19.36,0-37.63,4.53-54.02,12.39c0.17,11.85,0.75,23.6,1.68,35.26C482.41,573.83,500.42,567.93,519.78,567.93z"/>
	<path d="M509.53,372.4c0-10.11-2.69-19.52-7.04-27.94c-10.23,26.18-18.5,53.32-24.57,81.3
		C496.68,415.23,509.53,395.39,509.53,372.4z"/>
	<path d="M525.23,787.05c-1.82,0.08-3.61,0.28-5.45,0.28c-69.22,0-125.52-56.32-125.52-125.54c0-49.86,29.29-92.89,71.5-113.13
		c-0.04-2.7-0.2-5.37-0.2-8.09c0-30.15,2.59-59.68,7.35-88.49c-7.89,2.47-16.11,4.17-24.81,4.17c-46.25,0-83.86-37.61-83.86-83.86
		s37.61-83.86,83.86-83.86c26.22,0,49.37,12.34,64.76,31.23c35.74-79.5,90.13-148.74,157.66-202.19
		C578.6,44.82,462.5,1.26,336.16,1.26S93.73,44.82,1.81,117.58c102.18,80.88,174.32,197.91,197.13,331.84l124.21-65.67
		c7-3.71,15.67-1.03,19.36,5.97c3.7,7,1.02,15.67-5.97,19.35l-133.3,70.49c0.58,5.17,1.05,10.37,1.49,15.59l142.52,97.33
		c4.5,3.06,6.85,8.4,6.12,13.78l-19.7,143.49c-0.99,7.18-7.12,12.39-14.17,12.39c-0.65,0-1.31-0.05-1.96-0.14
		c-7.84-1.08-13.33-8.29-12.25-16.14l18.49-134.71l-117.24-80.07c0.05,3.17,0.24,6.3,0.24,9.49c0,7.85-0.26,15.64-0.59,23.4
		c28.65,23.03,47.06,58.29,47.06,97.82c0,62.34-45.73,114.07-105.37,123.76C112.41,854.95,62.4,915.61,1.81,963.57
		c91.92,72.76,208.02,116.32,334.35,116.32s242.43-43.56,334.35-116.32C610.36,915.96,560.64,855.82,525.23,787.05z"/>
	<path d="M425.92,661.79c0,48.48,36.93,88.48,84.13,93.37c-23.1-53.18-37.79-110.81-42.6-171.24
		C442.42,600.79,425.92,629.4,425.92,661.79z"/>
	<circle cx="448.1" cy="372.4" r="41.62"/>
	<path d="M448.1,433.83c-33.87,0-61.43-27.56-61.43-61.43s27.56-61.43,61.43-61.43c23.76,0,44.18,13.7,54.39,33.49
		c0.41-1.06,0.83-2.12,1.25-3.18c-10.98-19.55-31.67-32.94-55.65-32.94c-35.33,0-64.06,28.73-64.06,64.06s28.73,64.06,64.06,64.06
		c10.51,0,20.28-2.78,29.04-7.28c0.24-1.14,0.54-2.26,0.79-3.41C469.06,430.74,458.98,433.83,448.1,433.83z"/>
</g>
</svg>
