<?xml version="1.0" encoding="utf-8"?>
<!-- Generator: Adobe Illustrator 24.1.1, SVG Export Plug-In . SVG Version: 6.00 Build 0)  -->
<svg version="1.1" id="Layer_1" xmlns="http://www.w3.org/2000/svg" xmlns:xlink="http://www.w3.org/1999/xlink" x="0px" y="0px"
	 viewBox="0 0 1080 510" style="enable-background:new 0 0 1080 510;" xml:space="preserve">
<style type="text/css">
	.st0{fill:#0C050D;}
</style>
<g>
	<path d="M357.25,474.77h-9.99v28.91h-1.06v-28.91h-9.99v-1.06h21.04V474.77z"/>
	<path d="M384.29,503.68h-1.06v-29.97h1.06V503.68z"/>
	<path d="M414.36,488.19h15.49v1.15h-15.49v13.29h16.76v1.06H413.3v-29.97h17.82v1.06h-16.76V488.19z"/>
	<path d="M477.81,502.66v-28.95h1.06v29.97h-1.82l-17.57-28.61l-0.04,28.61h-1.1v-29.97h1.65L477.81,502.66z"/>
	<path d="M517.98,473.71c5.25,0,9.65,2.37,9.65,8.04v13.92c0,5.63-4.4,8-9.65,8h-10.12v-29.97H517.98z M517.98,502.62
		c4.74,0,8.59-1.99,8.59-6.94v-13.92c0-5-3.85-6.98-8.59-6.98h-9.06v27.85H517.98z"/>
	<path d="M553.75,503.68h-1.15l11.09-29.97h1.69l11.09,29.97h-1.14l-3.98-10.71h-13.63L553.75,503.68z M564.45,474.73l-6.35,17.18
		h12.86l-6.35-17.18H564.45z"/>
	<path d="M642.81,473.71c5.25,0,9.65,2.37,9.65,8.04v13.92c0,5.63-4.4,8-9.65,8h-10.12v-29.97H642.81z M642.81,502.62
		c4.74,0,8.59-1.99,8.59-6.94v-13.92c0-5-3.85-6.98-8.59-6.98h-9.06v27.85H642.81z"/>
	<path d="M682.01,488.19h15.49v1.15h-15.49v13.29h16.76v1.06h-17.82v-29.97h17.82v1.06h-16.76V488.19z"/>
	<path d="M774.55,474.77h-9.99v28.91h-1.06v-28.91h-9.99v-1.06h21.04V474.77z"/>
	<path d="M818.45,503.68l-10.07-13.38h-6.82v13.38h-1.02v-29.97h10.58c5.2,0,9.19,2.03,9.31,8.13c0,6.22-3.81,8.46-9.27,8.46h-1.61
		l10.12,13.38H818.45z M811.17,489.38c5.46,0,8.25-2.2,8.25-7.49c0-5.42-3.47-7.28-8.25-7.2h-9.61v14.69H811.17z"/>
	<path d="M848.59,503.68h-1.06v-29.97h1.06V503.68z"/>
	<path d="M875.57,503.68h-1.15l11.09-29.97h1.69l11.09,29.97h-1.14l-3.98-10.71h-13.63L875.57,503.68z M886.27,474.73l-6.35,17.18
		h12.86l-6.35-17.18H886.27z"/>
	<path d="M938.72,474.77h-9.99v28.91h-1.06v-28.91h-9.99v-1.06h21.04V474.77z"/>
	<path d="M964.67,503.68v-29.97h1.06v28.91h14.99v1.06H964.67z"/>
	<path d="M1004.42,481.76c0-5.63,5.54-8.47,11.13-8.47c5.59,0,11.17,2.83,11.17,8.47v13.84c0,5.63-5.59,8.51-11.17,8.51
		c-5.59,0-11.13-2.88-11.13-8.51V481.76z M1005.48,495.6c0,4.99,4.99,7.45,10.08,7.45c5.04,0,10.11-2.46,10.11-7.45v-13.84
		c0-5.25-5.12-7.45-10.16-7.45c-5.04,0.04-10.03,2.28-10.03,7.45V495.6z M1018.6,467.24l-3.04,4.36h-1.06l2.62-4.36H1018.6z"/>
	<path d="M1074.56,502.66v-28.95h1.06v29.97h-1.82l-17.57-28.61l-0.04,28.61h-1.1v-29.97h1.65L1074.56,502.66z"/>
</g>
<g>
	<path d="M284.88,200.34l-44.4,7.04c-2.96,0.47-4.97,3.25-4.51,6.21c0.43,2.67,2.73,4.57,5.35,4.57c0.28,0,0.57-0.02,0.86-0.06
		l44.4-7.04c2.96-0.47,4.97-3.25,4.51-6.21C290.62,201.89,287.9,199.94,284.88,200.34z"/>
	<path d="M223.8,164.45c0,10.86-6.27,20.19-15.32,24.84c-0.7,3.31-1.3,6.66-1.85,10.03c14.91-4.66,25.84-18.44,25.84-34.87
		c0-8.76-3.21-16.71-8.36-23.03c-1.4,3.1-2.72,6.24-3.99,9.41C222.39,154.89,223.8,159.49,223.8,164.45z"/>
	<path d="M227.14,250.01c22.65,0,41.08,18.43,41.08,41.07c0,22.65-18.43,41.08-41.08,41.08c-1.44,0-2.86-0.08-4.26-0.22
		c2.06,4.74,4.29,9.38,6.64,13.95c29.18-1.26,52.55-25.33,52.55-54.81c0-30.29-24.64-54.92-54.93-54.92
		c-8.47,0-16.47,1.98-23.64,5.42c0.08,5.19,0.33,10.33,0.74,15.43C210.79,252.59,218.67,250.01,227.14,250.01z"/>
	<path d="M222.65,164.45c0-4.42-1.18-8.54-3.08-12.22c-4.47,11.45-8.09,23.33-10.75,35.57C217.03,183.2,222.65,174.51,222.65,164.45
		z"/>
	<path d="M229.52,345.89c-0.8,0.03-1.58,0.12-2.38,0.12c-30.29,0-54.92-24.64-54.92-54.93c0-21.82,12.81-40.64,31.29-49.5
		c-0.02-1.18-0.09-2.35-0.09-3.54c0-13.19,1.13-26.11,3.22-38.72c-3.45,1.08-7.05,1.83-10.85,1.83c-20.24,0-36.69-16.46-36.69-36.69
		s16.46-36.69,36.69-36.69c11.47,0,21.6,5.4,28.34,13.67c15.64-34.79,39.43-65.08,68.98-88.47C252.87,21.12,202.07,2.06,146.8,2.06
		S40.72,21.12,0.5,52.96c44.71,35.39,76.27,86.6,86.26,145.2l54.35-28.73c3.06-1.62,6.86-0.45,8.47,2.61
		c1.62,3.06,0.45,6.86-2.61,8.47l-58.33,30.84c0.25,2.26,0.46,4.54,0.65,6.82l62.36,42.59c1.97,1.34,3,3.68,2.68,6.03l-8.62,62.78
		c-0.43,3.14-3.12,5.42-6.2,5.42c-0.28,0-0.57-0.02-0.86-0.06c-3.43-0.47-5.83-3.63-5.36-7.06l8.09-58.94l-51.3-35.03
		c0.02,1.39,0.11,2.76,0.11,4.15c0,3.43-0.11,6.84-0.26,10.24c12.53,10.07,20.59,25.5,20.59,42.8c0,27.27-20.01,49.91-46.1,54.15
		c-15.51,30.36-37.4,56.91-63.91,77.89c40.22,31.84,91.02,50.89,146.3,50.89s106.08-19.06,146.3-50.89
		C266.77,402.29,245.01,375.98,229.52,345.89z"/>
	<path d="M186.07,291.08c0,21.21,16.16,38.72,36.81,40.85c-10.11-23.27-16.54-48.48-18.64-74.93
		C193.29,264.39,186.07,276.91,186.07,291.08z"/>
	<circle cx="195.77" cy="164.45" r="18.21"/>
	<path d="M195.77,191.33c-14.82,0-26.88-12.06-26.88-26.88s12.06-26.88,26.88-26.88c10.4,0,19.33,6,23.8,14.65
		c0.18-0.46,0.36-0.93,0.55-1.39c-4.8-8.55-13.86-14.41-24.35-14.41c-15.46,0-28.03,12.57-28.03,28.03s12.57,28.03,28.03,28.03
		c4.6,0,8.87-1.22,12.71-3.19c0.11-0.5,0.24-0.99,0.34-1.49C204.94,189.98,200.53,191.33,195.77,191.33z"/>
</g>
<g>
	<g>
		<path d="M351.69,393.98c10.58,12.81,33.83,13.41,34.57,2.09c0.29-5.96-9.39-9.39-18.03-10.58c-16.99-2.68-32.49-13.41-32.49-33.53
			c0-20.71,18.78-31.59,38.15-31.59c12.81,0,25.19,3.58,36.06,16.84l-17.44,13.41c-11.02-11.77-29.95-11.33-30.4,0.89
			c0.3,5.07,5.81,8.05,14.01,9.84c18.78,3.43,37.55,9.98,36.36,35.91c-0.89,20.42-22.35,31.59-41.72,31.59
			c-12.67,0-26.08-6.41-35.92-19.07L351.69,393.98z"/>
		<path d="M547.17,347.04v80.32H520.2v-80.32h-28.01V321.7h83v25.33H547.17z"/>
		<path d="M656.66,356.58c0-24.29,21.75-36.21,43.66-36.21c21.9,0,43.81,12.07,43.81,36.21v36.06c0,24.14-21.75,36.21-43.66,36.21
			c-21.91,0-43.81-12.07-43.81-36.21V356.58z M683.34,392.64c0,7.75,8.64,11.48,17.14,11.48c8.49,0,16.99-3.87,16.99-11.48v-36.06
			c0-8.19-8.79-11.92-17.43-11.92c-8.35,0-16.69,4.17-16.69,11.92V392.64z"/>
		<path d="M864.51,393.83h-4.77v33.53h-26.97v-105.5h42.17c21.76,0,38.6,9.98,39.19,34.72c0,19.52-7.9,30.55-20.71,34.57
			l28.76,36.21h-33.23L864.51,393.83z M875.39,370.88c16.84,0,16.84-24.14,0-24.14h-15.64v24.14H875.39z"/>
		<path d="M1030.48,363.28h42.77v23.1h-42.77v15.79h46.49v25.19h-73.47v-105.5h73.47v25.04h-46.49V363.28z"/>
	</g>
	<g>
		<path class="st0" d="M389.53,47.23c16.22,0,30.01,5.71,41.37,17.14c11.36,11.42,17.04,25.18,17.04,41.27v133.17
			c0,16.22-5.71,30.01-17.13,41.37c-11.42,11.36-25.18,17.04-41.27,17.04c-16.22,0-29.98-5.71-41.27-17.13
			c-11.29-11.42-16.94-25.18-16.94-41.27V105.64c0-16.22,5.71-30.01,17.14-41.37C359.87,52.91,373.57,47.23,389.53,47.23z
			 M409.59,104.86c0-5.84-2.05-10.81-6.13-14.9c-4.09-4.09-9.05-6.13-14.9-6.13c-5.84,0-10.84,2.04-14.99,6.13
			c-4.15,4.09-6.23,9.05-6.23,14.9v133.56c0,5.84,2.08,10.8,6.23,14.89c4.15,4.09,9.15,6.13,14.99,6.13c5.84,0,10.81-2.04,14.9-6.13
			c4.08-4.09,6.13-9.05,6.13-14.89V104.86z"/>
		<path class="st0" d="M516.43,190.91V294.3h-36.8V50.35h36.8v103.58h44.38V50.35h36.8V294.3h-36.8V190.91H516.43z"/>
		<path class="st0" d="M674.81,238.22l-8.94,56.07h-38.32l41.47-243.95h50.62l40.88,243.95h-38.68l-8.61-56.07H674.81z
			 M694.14,106.22l-13.63,96.18h27.26L694.14,106.22z"/>
		<path class="st0" d="M831.96,50.15l48.83,164.08V50.15h36.8V294.3h-39.52l-50.62-156.34V294.3h-36.8V50.15H831.96z"/>
		<path class="st0" d="M994.79,238.22l-8.94,56.07h-38.32L989,50.35h50.62l40.88,243.95h-38.68l-8.61-56.07H994.79z M1014.12,106.22
			l-13.63,96.18h27.26L1014.12,106.22z"/>
	</g>
</g>
</svg>
